<svg width="21" height="21" viewBox="0 0 21 21" fill="none" xmlns="http://www.w3.org/2000/svg">
<path d="M1 1H3.11111L3.53333 3.11111M3.53333 3.11111H20L15.7778 11.5556H5.22222M3.53333 3.11111L5.22222 11.5556M5.22222 11.5556L2.80183 13.9759C2.13683 14.6409 2.60761 15.7778 3.54811 15.7778H15.7778M15.7778 15.7778C15.2179 15.7778 16.1737 15.3819 15.7778 15.7778ZM15.7778 15.7778C15.3819 16.1737 13.6667 17.329 13.6667 17.8889C13.6667 18.4488 13.8891 18.9858 14.285 19.3817C14.6809 19.7776 15.2179 20 15.7778 20C16.3377 20 16.8746 19.7776 17.2706 19.3817C17.6665 18.9858 17.8889 18.4488 17.8889 17.8889C17.8889 17.329 17.6665 16.792 17.2706 16.3961C16.8746 16.0002 16.3377 15.7778 15.7778 15.7778ZM7.33333 17.8889C7.33333 18.4488 7.11091 18.9858 6.715 19.3817C6.31909 19.7776 5.78212 20 5.22222 20C4.66232 20 4.12535 19.7776 3.72944 19.3817C3.33353 18.9858 3.11111 18.4488 3.11111 17.8889C3.11111 17.329 3.33353 16.792 3.72944 16.3961C4.12535 16.0002 4.66232 15.7778 5.22222 15.7778C5.78212 15.7778 6.31909 16.0002 6.715 16.3961C7.11091 16.792 7.33333 17.329 7.33333 17.8889Z" stroke="#E1E1E1" stroke-width="2" stroke-linecap="round" stroke-linejoin="round"/>
</svg>
